/* XPM */
static const char * Xfc_xpm[] = {
"46 48 10 1",
" 	c #006600",
".	c #F33331",
"+	c #1C8B1F",
"@	c #687262",
"#	c #439177",
"$	c #8CA1A9",
"%	c #F98D8B",
"&	c #94B28E",
"*	c #D0D5C8",
"=	c #FBFAF8",
"$$$$$$$$$$$$$$$$$$$$$$$$$$$$++++++++++++++++++",
"############################++++++++++++++++++",
"++++++++++++++++++++++++++++++++++++++++++++++",
"&====&=====+     +    +     +     &====**====&",
"&====&=====+     +    +     +     &====**====&",
"&====&=====+     +    +     +     &====**====&",
"&=%*=&==@==+     +    +     +     &====**=$==&",
"&====&==*==+     +    +     +     &====**====&",
"&====&=====+     +    +     +     &====**====&",
"&====&=====+     +    +     +     &====**====&",
"&====&=====+     +    +     +     +====**====&",
"++++++++++++++++++++++++++++++++++++++++++++++",
"++++++++++++++++++++++++++++++++++++++++++++++",
"++++++++++++++++++++++++++++++++++++++++++++++",
"&====&$====&*====&====*&====&$====#*===*&====&",
"&*==***@=@=&$@=@=@%%=%*$$@@**$=@==#**=$**%==%*",
"&****&$*=*=&$***=@====*@====&$====@*===*@====&",
"&%%%%&$$@@=&$$@*=&====*$@=@*&$@=@=@%%=.*&@=$$&",
"#====&%====&%====#====**====&%====@====*@====*",
"&*==$&*%%.=&%.=.=#***@**@=@*&%=.==@%%%.**%=*%*",
"#====&%====&*====#*===*@***=&$====&$=*=*&====*",
"#=$$=&%.=.*&$@=@=#**$=*@@@$*&@@=@=#$$$@*&====&",
"#====&*====&$====@====*%====*$====&*===*&====*",
"&$**$&%.=.*&$@=@=@%%%%**%=%*&*====&**=%*&=@*=&",
"&====&=====&%====@*===*%====*****=@*===**====*",
"@%**%&%%%.*&%%=.=@%**%*%.%%**@$@@=@*==%=%=%==*",
"&====&%====&%====@====**%%.%*=@@@=&====**====*",
"&====&%%=%=&%=%==@====**%%%%*=@@@=&===%**=%==*",
"&====&=====&=====&====**%%%%*=@@@=&====**====*",
"&====&==.==&=====&=*%=**%%%=*=*@$*&====**====*",
"&====&=====&=====&====**%%.%&=@@$*&===%**=%*=&",
"&====&=====&=====&====**===*&=====&====%*===**",
"&====&=.=.%&==%=%&====*+++++++++++++++++++++++",
"&====&=====&=====&====*+++++++++++++++++++++++",
"+    ++    +    ++    ++++++++++++++++++++++++",
"++++++++++++++++++++++++++++++++++++++++++++++",
"++++++++++++++++++++++++++++++++++++++++++++++",
"++++++++++++++++++++++++++++++++++++++++++++++",
"++++++++++++++++++++++++++++++++++++++++++++++",
"++++++++++++++++++++++++++++++++++++++++++++++",
"++++++++++++++++++++++++++++++++++++++++++++++",
"++++++++++++++++++++++++++++++++++++++++++++++",
"++++++++++++++++++++++++++++++++++++++++++++++",
"++++++++++++++++++++++++++++++++++++++++++++++",
"++++++++++++++++++++++++++++++++++++++++++++++",
"++++++++++++++++++++++++++++++++++++++++++++++",
"++++++++++++++++++++++++++++++++++++++++++++++",
"++++++++++++++++++++++++++++++++++++++++++++++"};
